<?xml version="1.0" standalone="no"?>
<!DOCTYPE svg PUBLIC "-//W3C//DTD SVG 20010904//EN"
 "http://www.w3.org/TR/2001/REC-SVG-20010904/DTD/svg10.dtd">
<svg version="1.0" xmlns="http://www.w3.org/2000/svg"
 width="3000.000000pt" height="3000.000000pt" viewBox="0 0 3000.000000 3000.000000"
 preserveAspectRatio="xMidYMid meet">
<metadata>
Created by potrace 1.14, written by Peter Selinger 2001-2017
</metadata>
<g transform="translate(0.000000,3000.000000) scale(0.100000,-0.100000)"
fill="#000000" stroke="none">
<path d="M18257 26158 l-898 -899 -32 19 c-53 32 -329 193 -377 220 -25 14
-94 54 -155 90 -211 124 -294 172 -835 487 -300 175 -567 330 -595 346 -27 15
-84 48 -125 72 -76 46 -90 49 -90 18 0 -9 -4 -21 -9 -27 -4 -5 -198 -486 -431
-1069 -233 -583 -426 -1063 -429 -1067 -4 -5 -61 -10 -126 -13 -66 -3 -165 -8
-220 -10 -55 -3 -154 -7 -220 -10 -66 -3 -167 -7 -225 -10 -58 -3 -166 -7
-240 -10 -74 -4 -175 -8 -225 -10 -49 -2 -144 -7 -210 -10 -66 -3 -169 -7
-230 -10 -60 -3 -168 -7 -240 -10 -71 -3 -170 -7 -220 -10 -49 -2 -153 -7
-230 -11 -77 -3 -167 -7 -200 -9 -33 -2 -77 -3 -97 -4 l-38 -1 6 -52 c3 -29 7
-60 9 -68 2 -8 7 -37 10 -65 3 -27 8 -61 10 -75 7 -37 13 -79 20 -135 3 -27
10 -79 15 -115 5 -36 11 -81 14 -100 3 -19 10 -68 16 -108 5 -39 12 -89 15
-110 3 -20 7 -50 9 -67 2 -16 14 -100 25 -185 12 -85 28 -200 36 -255 8 -55
17 -120 20 -145 5 -43 21 -160 31 -225 10 -62 14 -91 18 -125 23 -175 29 -222
40 -295 4 -22 9 -58 11 -80 4 -34 17 -128 30 -215 2 -14 7 -47 10 -75 4 -27 9
-62 11 -77 4 -25 0 -28 -38 -38 -24 -6 -50 -13 -58 -15 -8 -2 -26 -6 -40 -9
-14 -3 -146 -34 -295 -71 -148 -36 -279 -67 -290 -70 -11 -2 -56 -13 -100 -24
-98 -25 -449 -109 -478 -115 -12 -3 -141 -34 -287 -70 -146 -36 -276 -67 -290
-70 -30 -6 -398 -95 -423 -102 -14 -5 5 -49 132 -297 82 -161 219 -431 306
-602 87 -170 213 -418 280 -550 457 -896 428 -833 403 -846 -13 -7 -50 -26
-83 -44 -115 -62 -361 -193 -470 -250 -60 -32 -132 -70 -160 -85 -27 -15 -104
-56 -170 -90 -66 -34 -133 -70 -150 -80 -16 -9 -88 -48 -160 -85 -71 -37 -152
-80 -180 -95 -27 -15 -104 -56 -170 -90 -66 -35 -160 -85 -209 -112 -49 -26
-91 -48 -93 -48 -3 0 -24 -12 -48 -26 l-44 -25 242 -320 c133 -176 249 -330
257 -342 20 -30 314 -421 320 -427 3 -3 135 -177 293 -387 l287 -383 -161
-132 c-185 -153 -449 -370 -500 -411 -88 -73 -292 -240 -379 -312 -53 -44
-116 -96 -140 -115 -24 -19 -71 -58 -104 -86 -34 -28 -161 -133 -283 -233
-123 -101 -223 -187 -223 -191 0 -4 285 -221 633 -481 347 -260 637 -477 642
-481 6 -5 136 -103 290 -218 154 -116 281 -214 283 -218 2 -7 -81 -55 -438
-250 -25 -14 -79 -44 -120 -67 -41 -23 -106 -59 -145 -80 -38 -21 -104 -57
-145 -80 -41 -23 -106 -59 -145 -80 -38 -21 -144 -79 -235 -130 -91 -50 -196
-109 -235 -130 -38 -21 -104 -57 -145 -80 -41 -23 -100 -56 -130 -72 -97 -53
-263 -145 -325 -180 -33 -19 -70 -39 -83 -45 -12 -6 -21 -17 -20 -24 2 -10
131 -147 368 -395 32 -33 239 -252 353 -373 27 -28 111 -116 187 -196 75 -80
152 -161 170 -180 18 -19 103 -109 189 -200 87 -91 189 -198 227 -239 38 -41
81 -85 97 -99 34 -32 34 -43 0 -38 -16 2 -59 7 -98 11 -38 3 -83 8 -100 10
-32 5 -78 9 -190 20 -38 4 -81 9 -95 11 -14 2 -54 6 -90 10 -36 3 -75 7 -87 9
-12 2 -57 7 -100 10 -43 4 -86 9 -95 10 -9 2 -48 6 -85 10 -37 3 -79 8 -93 10
-14 3 -54 7 -90 10 -36 3 -81 7 -100 10 -19 2 -60 7 -90 10 -93 9 -153 16
-191 21 -20 2 -56 6 -80 8 -45 5 -137 14 -199 21 -19 2 -62 7 -95 10 -33 3
-77 8 -97 10 -39 5 -75 9 -163 20 -27 3 -74 8 -103 10 l-54 5 6 -97 c4 -54 9
-129 11 -168 3 -38 7 -117 10 -175 3 -58 7 -136 10 -175 2 -38 7 -119 10 -180
3 -60 7 -135 10 -165 2 -30 7 -113 10 -185 3 -71 8 -155 10 -185 2 -30 7 -104
10 -165 3 -60 8 -139 10 -175 2 -36 6 -114 10 -175 10 -195 15 -278 20 -363
l5 -83 -112 85 c-62 47 -117 89 -123 93 -5 5 -138 105 -295 223 -157 118 -287
217 -290 220 -3 3 -21 17 -40 30 -19 13 -40 29 -46 35 -6 5 -24 20 -40 31 -16
12 -132 100 -259 195 -126 95 -259 195 -295 222 -36 26 -72 54 -80 60 -8 7
-61 47 -116 89 l-102 77 -15 -42 c-9 -23 -77 -229 -153 -457 -75 -228 -167
-507 -204 -620 -37 -113 -132 -398 -209 -635 -78 -236 -147 -442 -153 -458
l-10 -27 -20 22 c-36 42 -143 161 -177 197 -18 20 -65 71 -105 115 -39 43 -76
84 -81 90 -43 46 -144 157 -215 236 -47 52 -114 126 -150 165 -70 76 -226 247
-250 275 -8 9 -55 61 -105 115 -49 54 -94 103 -100 109 -55 61 -208 230 -240
264 -22 24 -42 48 -43 53 -10 26 -33 0 -72 -83 -48 -102 -189 -394 -307 -638
-42 -85 -105 -216 -141 -290 -35 -74 -90 -189 -122 -255 -32 -66 -99 -205
-150 -310 -51 -104 -112 -230 -135 -280 -23 -49 -82 -171 -130 -270 -48 -99
-114 -236 -147 -305 -33 -69 -62 -129 -65 -133 -4 -7 111 -5 457 8 275 11 536
23 625 30 33 2 114 7 180 11 66 4 136 8 155 9 19 2 80 6 135 10 55 3 116 8
135 10 19 2 71 7 115 10 44 4 96 9 115 11 19 2 64 6 100 9 36 3 82 8 103 10
59 8 180 22 257 30 25 3 56 7 70 10 14 2 45 7 70 10 64 9 245 38 310 51 14 3
72 13 130 24 58 11 116 21 130 24 14 3 63 12 110 20 82 15 167 31 220 41 14 3
39 8 55 11 17 2 86 16 155 30 134 27 152 31 190 38 14 2 59 12 100 21 41 9 86
19 100 21 299 55 1124 271 1375 359 22 8 101 35 175 61 541 185 1041 425 1435
687 110 73 263 183 275 197 3 3 21 17 40 30 40 28 49 36 190 162 199 178 363
356 506 551 29 39 57 77 61 82 30 37 160 249 211 340 112 204 215 446 284 665
55 177 125 466 143 595 3 22 8 51 10 65 3 14 7 43 10 65 3 22 8 51 10 65 2 14
7 52 10 85 3 33 8 74 10 90 20 133 27 756 12 1020 -4 66 -9 158 -12 205 -10
170 -15 267 -20 385 -3 66 -8 158 -10 205 -5 103 -16 379 -20 515 -17 512 -19
704 -20 1270 0 555 6 905 20 1205 8 174 17 340 20 390 2 30 6 98 10 150 3 52
7 118 9 145 3 28 7 91 11 140 3 50 8 106 10 125 2 19 6 71 10 115 3 44 10 116
15 160 5 44 12 109 15 145 6 66 7 77 19 185 14 128 27 233 31 256 2 8 6 42 9
75 4 32 11 86 16 119 5 33 12 80 15 105 3 25 7 56 10 70 3 14 7 45 10 70 6 47
9 69 25 160 5 30 12 73 15 95 3 22 8 51 11 65 3 14 7 37 9 52 4 24 18 110 29
170 19 100 39 204 51 263 34 169 67 327 86 410 10 50 21 99 23 111 2 11 9 38
15 60 6 21 20 80 32 129 47 207 164 633 235 865 103 330 239 731 284 835 5 11
32 76 60 145 29 69 83 189 120 268 38 78 69 145 70 147 5 17 186 332 247 429
288 459 659 896 1029 1212 32 27 65 56 74 64 8 8 36 31 60 50 25 19 47 37 50
41 14 17 300 226 405 295 142 94 300 194 308 194 3 0 35 18 72 41 109 66 419
221 610 304 90 39 275 114 310 125 22 7 45 16 50 20 6 4 19 10 30 13 11 3 94
31 185 62 191 65 517 162 608 180 9 2 62 15 117 29 55 13 111 27 125 30 14 2
90 18 170 34 80 17 165 33 190 37 25 3 63 10 85 15 22 5 62 11 89 15 27 3 52
8 55 9 3 2 31 7 62 10 31 4 66 8 76 10 11 3 44 7 73 11 29 4 61 8 71 10 10 2
46 6 81 10 62 6 108 11 178 20 19 3 67 7 105 11 39 3 88 7 110 9 22 2 85 6
140 10 55 3 118 8 140 10 114 10 455 19 730 18 385 0 788 -15 1035 -38 19 -2
69 -6 110 -10 41 -3 89 -8 105 -10 17 -2 66 -7 110 -10 44 -4 82 -8 85 -10 3
-2 39 -6 80 -10 41 -4 84 -9 95 -11 11 -2 41 -6 66 -9 25 -3 54 -7 65 -9 10
-2 44 -7 74 -11 30 -4 62 -9 71 -10 9 -2 40 -6 70 -10 30 -4 57 -9 60 -11 4
-2 24 -6 44 -9 21 -2 46 -7 56 -10 28 -9 23 5 -18 56 -21 25 -50 61 -65 80
-15 19 -76 95 -135 170 -59 75 -121 153 -138 174 -16 21 -50 63 -75 95 -25 31
-58 74 -75 95 -64 81 -287 361 -303 380 -10 11 -31 38 -47 60 -16 22 -32 42
-35 45 -4 3 -19 23 -36 45 -16 22 -39 51 -50 65 -12 14 -79 97 -148 185 -70
88 -132 167 -139 175 -7 8 -131 165 -276 348 -145 183 -266 334 -270 336 -3 1
-410 -402 -904 -896z"/>
<path d="M18757 24594 c-1 -1 -74 -5 -162 -8 -88 -4 -180 -9 -205 -11 -25 -2
-85 -6 -135 -9 -49 -3 -99 -8 -110 -10 -11 -2 -60 -7 -110 -10 -49 -4 -97 -9
-105 -11 -8 -2 -45 -7 -82 -10 -37 -3 -77 -8 -89 -10 -12 -3 -59 -9 -103 -15
-45 -6 -97 -13 -116 -16 -33 -5 -121 -19 -165 -28 -11 -2 -40 -7 -65 -11 -25
-4 -54 -9 -65 -11 -54 -11 -82 -16 -105 -19 -139 -20 -665 -147 -970 -236
-325 -94 -888 -289 -1065 -369 -11 -5 -92 -39 -180 -75 -261 -109 -453 -216
-672 -373 -60 -43 -117 -85 -128 -94 -11 -9 -65 -54 -120 -99 -112 -93 -411
-386 -495 -486 -30 -35 -62 -72 -70 -81 -116 -130 -366 -475 -502 -692 -117
-187 -290 -494 -342 -605 -7 -16 -41 -86 -73 -155 -96 -200 -156 -339 -278
-640 -62 -154 -195 -544 -265 -780 -12 -41 -26 -86 -31 -100 -7 -21 -102 -369
-114 -420 -49 -200 -139 -600 -159 -710 -3 -14 -12 -61 -20 -105 -16 -81 -18
-91 -30 -155 -3 -19 -8 -44 -10 -55 -2 -11 -7 -42 -10 -69 -4 -27 -9 -52 -11
-56 -2 -3 -8 -42 -14 -86 -7 -44 -14 -91 -16 -105 -5 -26 -53 -350 -60 -409
-2 -19 -9 -71 -14 -115 -6 -44 -13 -102 -16 -130 -3 -27 -8 -63 -10 -80 -2
-16 -7 -61 -10 -100 -4 -38 -9 -77 -10 -87 -2 -10 -7 -53 -10 -96 -4 -42 -8
-90 -10 -107 -1 -16 -5 -64 -9 -105 -3 -41 -9 -100 -11 -130 -3 -30 -7 -77
-10 -105 -4 -46 -13 -191 -20 -310 -2 -27 -6 -104 -10 -170 -24 -408 -30 -683
-30 -1400 1 -630 5 -881 20 -1202 2 -43 6 -134 10 -203 3 -69 7 -156 10 -195
2 -38 7 -117 10 -175 9 -169 15 -262 20 -310 2 -25 7 -74 10 -110 3 -36 7 -87
10 -115 2 -27 7 -81 10 -120 3 -38 8 -86 10 -105 20 -200 28 -859 12 -1060
-15 -181 -15 -184 -38 -365 -13 -106 -22 -160 -53 -325 -10 -56 -38 -179 -52
-235 -9 -33 -17 -64 -19 -70 -1 -5 -4 -17 -7 -25 -3 -8 -18 -58 -32 -110 -15
-52 -50 -158 -78 -235 -225 -623 -559 -1147 -1028 -1615 -242 -242 -418 -389
-710 -593 -275 -193 -706 -436 -1010 -570 -19 -8 -60 -26 -90 -40 -88 -40
-316 -132 -446 -180 -112 -42 -416 -147 -439 -152 -5 -1 -17 -5 -25 -8 -8 -3
-49 -15 -90 -27 -41 -12 -95 -28 -120 -36 -61 -18 -339 -94 -370 -100 -14 -3
-68 -16 -120 -29 -104 -26 -345 -80 -400 -90 -19 -3 -64 -12 -100 -20 -73 -16
-324 -62 -385 -70 -22 -4 -47 -8 -55 -10 -13 -4 -203 -33 -330 -51 -19 -3 -46
-7 -60 -9 -14 -2 -63 -9 -110 -15 -47 -6 -96 -13 -110 -15 -41 -6 -143 -18
-170 -20 -56 -5 -167 -17 -190 -20 -14 -2 -54 -6 -90 -10 -36 -3 -85 -8 -110
-10 -120 -12 -222 -21 -345 -30 -33 -2 -94 -7 -135 -10 -426 -31 -984 -51
-1561 -55 -162 -1 -226 -6 -294 -20 -84 -19 -189 -68 -198 -93 -2 -7 21 -41
51 -77 56 -64 302 -312 358 -360 39 -33 214 -178 239 -199 99 -80 340 -249
481 -337 150 -94 138 -87 239 -145 413 -240 967 -473 1475 -619 171 -49 513
-133 585 -144 11 -2 34 -6 50 -10 42 -9 67 -14 165 -31 47 -8 94 -17 105 -19
11 -2 43 -7 70 -10 51 -7 68 -9 140 -21 22 -3 63 -8 90 -11 28 -2 61 -6 75 -9
14 -2 79 -9 145 -15 66 -5 143 -12 170 -15 169 -16 411 -25 710 -25 258 0 344
2 940 15 376 8 1036 22 1455 30 146 3 369 8 495 10 127 3 343 7 480 10 138 3
354 7 480 10 127 3 345 7 485 10 140 3 361 7 490 10 295 7 622 13 950 20 140
3 361 7 490 10 129 3 350 7 490 10 140 3 356 7 480 10 124 3 344 7 490 10 146
3 366 7 490 10 124 3 342 7 485 10 428 9 696 14 955 20 135 3 353 7 485 10
132 3 337 7 455 10 118 3 321 7 450 10 541 11 737 15 950 20 124 3 333 7 465
10 132 3 328 7 435 10 107 3 303 7 435 10 132 3 337 7 455 10 118 3 314 7 435
10 431 10 633 15 820 20 317 8 613 16 750 20 696 22 655 19 775 58 19 6 39 15
44 19 6 4 17 8 26 8 26 0 222 103 294 154 131 94 239 225 283 346 79 213 26
473 -152 746 -161 246 -465 571 -720 768 -264 204 -565 384 -825 495 -41 18
-84 36 -95 41 -35 15 -187 68 -263 92 -69 21 -72 24 -67 48 3 14 7 36 10 50 3
14 7 36 10 50 2 14 7 48 11 75 3 28 8 58 10 68 2 10 6 48 10 85 3 37 7 69 9
72 2 3 6 52 10 110 4 58 9 123 11 145 5 56 5 478 0 550 -34 507 -136 906 -320
1251 -51 96 -157 257 -212 324 -49 59 -207 215 -264 263 -38 31 -42 37 -23 37
21 0 117 -33 186 -64 17 -8 93 -41 167 -74 173 -77 266 -121 528 -248 252
-122 300 -135 477 -130 66 2 129 6 140 9 11 3 34 8 50 12 127 29 256 101 333
185 51 54 114 170 127 230 2 8 8 35 14 60 11 46 8 301 -4 320 -3 6 -8 23 -11
38 -15 95 -109 378 -135 407 -5 5 -9 17 -9 27 0 10 -4 18 -10 18 -5 0 -10 5
-10 11 0 11 -65 143 -111 226 -148 266 -493 771 -747 1092 -68 87 -218 269
-232 281 -3 3 -34 39 -70 80 -36 41 -72 82 -80 90 -20 22 -236 252 -299 320
-79 85 -201 236 -201 248 0 7 -4 12 -8 12 -18 0 -123 226 -130 283 -1 7 -5 29
-17 102 -3 17 -8 76 -11 132 l-6 102 28 6 c237 52 680 194 979 314 285 114
793 357 864 412 13 10 28 19 33 19 20 0 354 210 548 345 120 83 368 276 425
330 12 11 57 52 100 90 212 189 465 466 643 705 126 168 286 434 394 656 73
147 194 443 203 494 0 3 11 34 22 70 23 69 68 228 77 270 3 14 14 66 25 115
11 50 22 104 25 120 23 135 25 151 41 275 23 174 29 303 30 570 0 228 -8 440
-19 510 -3 14 -7 57 -11 95 -5 60 -18 158 -40 304 -3 19 -7 43 -10 55 -2 12
-7 38 -10 59 -21 150 -117 551 -195 811 -50 170 -134 427 -150 461 -6 11 -26
64 -45 119 -162 451 -474 1109 -595 1253 -5 7 -10 15 -10 18 0 14 -218 298
-296 385 -110 123 -178 192 -296 306 -87 83 -259 233 -338 294 -18 14 -37 30
-44 35 -67 59 -422 304 -588 406 -154 95 -539 298 -688 363 -36 16 -87 39
-115 52 -262 118 -620 248 -945 343 -58 17 -118 35 -135 41 -144 45 -662 158
-895 195 -19 3 -46 7 -60 10 -37 7 -78 13 -139 20 -30 4 -62 8 -71 10 -16 3
-85 12 -160 20 -19 2 -55 7 -80 10 -42 5 -68 7 -230 20 -36 3 -87 7 -115 10
-150 13 -906 29 -918 19z m3155 -2893 c42 -7 87 -14 100 -17 13 -2 37 -7 53
-10 17 -3 51 -11 78 -19 26 -8 48 -14 50 -13 1 0 22 -5 47 -12 25 -7 52 -13
60 -15 8 -2 37 -13 63 -24 27 -12 53 -21 58 -21 9 0 86 -33 179 -78 104 -49
330 -186 338 -204 2 -5 10 -8 17 -8 7 0 15 -3 17 -8 2 -4 25 -25 53 -47 137
-111 278 -253 376 -380 193 -253 321 -511 403 -815 29 -107 30 -113 62 -313 9
-60 12 -412 3 -487 -10 -93 -18 -149 -23 -175 -30 -145 -42 -192 -73 -288 -42
-133 -100 -272 -156 -377 -53 -98 -138 -234 -148 -238 -5 -2 -9 -8 -9 -13 0
-5 -18 -33 -41 -62 -133 -170 -298 -334 -433 -432 -16 -11 -34 -26 -41 -32 -8
-7 -18 -13 -23 -13 -6 0 -12 -4 -14 -9 -4 -12 -232 -150 -269 -163 -16 -5 -29
-15 -29 -21 0 -6 -3 -7 -6 -4 -4 4 -23 -2 -43 -13 -36 -20 -183 -79 -211 -85
-8 -2 -40 -13 -70 -23 -63 -23 -259 -68 -340 -78 -30 -3 -82 -10 -115 -14 -60
-8 -399 -5 -465 3 -114 15 -137 19 -291 52 -53 11 -233 69 -289 92 -8 3 -17 7
-20 8 -39 13 -189 86 -267 129 -235 130 -520 374 -658 562 -11 15 -26 33 -32
40 -7 7 -13 17 -13 22 0 6 -4 12 -8 14 -34 13 -272 432 -272 478 0 11 -5 21
-34 78 -9 17 -15 32 -11 32 3 0 -1 16 -9 35 -9 20 -16 39 -17 43 -1 4 -3 12
-4 17 -14 50 -35 135 -39 155 -2 14 -9 48 -15 75 -43 195 -49 551 -15 775 43
282 163 604 316 848 42 66 107 162 118 172 3 3 18 22 34 43 15 21 41 52 57 68
16 16 29 32 29 34 0 7 182 185 217 212 15 12 42 33 58 47 143 121 376 255 580
336 59 23 168 61 185 65 3 1 25 7 50 14 38 11 98 25 205 47 26 5 89 14 173 23
93 11 431 6 524 -8z"/>
</g>
</svg>
